# xmcd
#
# Track frame offsets: 
#        150
#        13355
#        26240
#        39057
#        52375
#        68672
#        81249
#        95786
#        109997
#        124788
#        135978
#        147448
#        159269
#        171092
#        183539
#        198318
#        211638
#        225212
#        239298
#        252897
#
# Disc length: 3532 seconds
#
# Revision: 0
# Processed by: cddbd v1.5.2PL0 Copyright (c) Steve Scherf et al.
# Submitted via: ExactAudioCopy v0.99pb5
#
DISCID=130dca14
DTITLE=Wild Canyons - Take A Break
DYEAR=1900
DGENRE=Instrumental
TTITLE0=I'm A Ramblin Man
TTITLE1=Cry To Me
TTITLE2=Folsom Prison Blues
TTITLE3=Jim Bridger
TTITLE4=Just To Satisfy You
TTITLE5=Loving Her Was Easier
TTITLE6=It Keeps Rainin
TTITLE7=Dreaming My Dreams
TTITLE8=Banks Of The Ohio
TTITLE9=Act Naturally
TTITLE10=Roll On Muddy River
TTITLE11=Waymore's Blues
TTITLE12=The Promised Land
TTITLE13=You Better Move On
TTITLE14=Me And Bobby McGee
TTITLE15=North To Alaska
TTITLE16=Okie From Muskogee
TTITLE17=Wolverton Mountain
TTITLE18=Bob Wills Is Still The King
TTITLE19=Valdez Horses
EXTD=
EXTT0=
EXTT1=
EXTT2=
EXTT3=
EXTT4=
EXTT5=
EXTT6=
EXTT7=
EXTT8=
EXTT9=
EXTT10=
EXTT11=
EXTT12=
EXTT13=
EXTT14=
EXTT15=
EXTT16=
EXTT17=
EXTT18=
EXTT19=
PLAYORDER=
